<svg width="24" height="24" viewBox="0 0 24 24" fill="none" xmlns="http://www.w3.org/2000/svg">
<circle cx="12" cy="12" r="12" fill="#D9D9D9"/>
<path d="M6.20787 8.0737L6.20787 6.99259C6.20787 6.53483 6.57798 6.16472 7.03331 6.16715L16.4978 6.16472C16.9556 6.16472 17.3257 6.53483 17.3233 6.99016V16.4571C17.3233 16.9149 16.9532 17.285 16.4978 17.2826L15.4167 17.2826C14.9541 17.2826 14.5816 16.9003 14.5913 16.4376L14.7301 10.7083L7.73213 17.7062C7.40829 18.0301 6.88721 18.0301 6.56337 17.7062L5.7842 16.9271C5.46035 16.6032 5.46035 16.0821 5.7842 15.7583L12.7821 8.76034L7.05279 8.89913C6.58772 8.91131 6.20544 8.53876 6.20787 8.0737Z" fill="#0A64B4"/>
</svg>
