<svg width="24" height="24" viewBox="0 0 24 24" fill="none" xmlns="http://www.w3.org/2000/svg">
<circle cx="12" cy="12" r="12" fill="#D9D9D9"/>
<path d="M17.3588 15.159L17.4531 16.236C17.493 16.692 17.1565 17.0929 16.7027 17.1302L7.27442 17.9575C6.8184 17.9974 6.41744 17.661 6.38018 17.2071L5.55508 7.77621C5.51518 7.32019 5.85163 6.91923 6.30543 6.88197L7.38242 6.78775C7.8433 6.74743 8.24774 7.09579 8.27836 7.55751L8.63944 13.2772L15.0009 5.69593C15.2952 5.34509 15.8143 5.29968 16.1652 5.59407L17.0093 6.30236C17.3601 6.59675 17.4055 7.11584 17.1112 7.46668L10.7497 15.0479L16.4452 14.4103C16.9074 14.3576 17.3207 14.6954 17.3588 15.159Z" fill="#0A64B4"/>
</svg>
